<svg xmlns="http://www.w3.org/2000/svg" xmlns:xlink="http://www.w3.org/1999/xlink" version="1.1" x="0px" y="0px" viewBox="0 0 100 100" style="enable-background:new 0 0 100 100;" xml:space="preserve"><g><path fill="#A37B73FF" d="M42.08,56.18v38.41H96V56.18H42.08z M94,62.89H44.08v-4.71H94V62.89z M94,92.59H44.08v-27.7H94V92.59z"/><path fill="#A37B73FF" d="M54.59,61.54h0.32c0.55,0,1-0.45,1-1s-0.45-1-1-1h-0.32c-0.55,0-1,0.45-1,1S54.04,61.54,54.59,61.54z"/><path fill="#A37B73FF" d="M50.44,61.54h0.32c0.55,0,1-0.45,1-1s-0.45-1-1-1h-0.32c-0.55,0-1,0.45-1,1S49.88,61.54,50.44,61.54z"/><path fill="#A37B73FF" d="M46.28,61.54h0.32c0.55,0,1-0.45,1-1s-0.45-1-1-1h-0.32c-0.55,0-1,0.45-1,1S45.73,61.54,46.28,61.54z"/><path fill="#A37B73FF" d="M57.92,5.41H4v38.41h53.92V5.41z M55.92,41.82H6v-27.7h49.92V41.82z M6,12.12V7.41h49.92v4.71H6z"/><path fill="#A37B73FF" d="M16.83,8.76h-0.32c-0.55,0-1,0.45-1,1s0.45,1,1,1h0.32c0.55,0,1-0.45,1-1S17.38,8.76,16.83,8.76z"/><path fill="#A37B73FF" d="M12.67,8.76h-0.32c-0.55,0-1,0.45-1,1s0.45,1,1,1h0.32c0.55,0,1-0.45,1-1S13.23,8.76,12.67,8.76z"/><path fill="#A37B73FF" d="M8.52,8.76H8.2c-0.55,0-1,0.45-1,1s0.45,1,1,1h0.32c0.55,0,1-0.45,1-1S9.07,8.76,8.52,8.76z"/><path fill="#A37B73FF" d="M39.07,77.97C27.47,73.44,19.98,62.46,19.98,50c0-1.17,0.07-2.35,0.2-3.51c0.06-0.55-0.33-1.04-0.88-1.11   c-0.56-0.06-1.04,0.33-1.11,0.88c-0.14,1.23-0.22,2.49-0.22,3.74c0,13.29,7.99,25,20.36,29.83c0.12,0.05,0.24,0.07,0.36,0.07   c0.4,0,0.78-0.24,0.93-0.64C39.84,78.75,39.58,78.17,39.07,77.97z"/><path fill="#A37B73FF" d="M60.93,22.03C72.53,26.56,80.02,37.54,80.02,50c0,0.54-0.01,1.07-0.04,1.6c-0.03,0.55,0.39,1.02,0.95,1.05   c0.02,0,0.04,0,0.05,0c0.53,0,0.97-0.41,1-0.95c0.03-0.57,0.04-1.14,0.04-1.71c0-13.29-7.99-25-20.37-29.83   c-0.52-0.2-1.09,0.05-1.3,0.57C60.16,21.25,60.42,21.83,60.93,22.03z"/></g></svg>