<svg xmlns="http://www.w3.org/2000/svg" version="1.1" viewBox="-5.0 -10.0 110.0 110.0">
 <g>
  <path fill="#A37B73FF" d="m52.625 62.199c-0.14844-0.55859-0.71875-0.89453-1.2773-0.74609s-0.89062 0.71875-0.74219 1.2773l1.7812 6.6992v-0.003907c0.12109 0.47266 0.55469 0.79688 1.0391 0.78125 0.085938 0.011719 0.17578 0.011719 0.26172 0 0.55469-0.14453 0.88672-0.71484 0.73828-1.2695z"/>
  <path fill="#A37B73FF" d="m27.906 18.688c0.64844 0 1.2344-0.39062 1.4805-0.99219 0.25-0.59766 0.11328-1.2891-0.34766-1.7461-0.45703-0.46094-1.1484-0.59766-1.7461-0.34766-0.60156 0.24609-0.99219 0.83203-0.99219 1.4805 0 0.42578 0.16797 0.83594 0.46875 1.1406 0.30078 0.30078 0.71094 0.46875 1.1367 0.46484z"/>
  <path fill="#A37B73FF" d="m34.188 18.688c0.64844 0 1.2344-0.39062 1.4805-0.99219 0.25-0.59766 0.11328-1.2891-0.34766-1.7461-0.45703-0.46094-1.1484-0.59766-1.7461-0.34766-0.60156 0.24609-0.99219 0.83203-0.99219 1.4805 0 0.88672 0.71875 1.6055 1.6055 1.6055z"/>
  <path fill="#A37B73FF" d="m40.457 18.688c0.64844 0 1.2344-0.39062 1.4844-0.99219 0.24609-0.59766 0.10938-1.2891-0.34766-1.7461-0.46094-0.46094-1.1484-0.59766-1.75-0.34766-0.59766 0.24609-0.98828 0.83203-0.98828 1.4805 0 0.42578 0.16797 0.83594 0.46875 1.1367s0.70703 0.46875 1.1328 0.46875z"/>
  <path fill="#A37B73FF" d="m49.312 48.25c0.27734 0 0.54297-0.10547 0.73828-0.30078l2.3555-2.3633v-0.003907c0.21875-0.1875 0.35156-0.46094 0.36328-0.75 0.011719-0.28906-0.097656-0.57031-0.30469-0.77734-0.20312-0.20313-0.48828-0.31641-0.77734-0.30469s-0.5625 0.14453-0.75 0.36328l-2.3633 2.3555c-0.19922 0.19531-0.30859 0.46094-0.30859 0.73828 0 0.27734 0.10938 0.54688 0.30859 0.74219 0.19531 0.19531 0.46094 0.30078 0.73828 0.30078z"/>
  <path fill="#A37B73FF" d="m49.801 52.52c0.19922 0.19531 0.46484 0.30469 0.74219 0.30469 0.27734 0 0.54297-0.10938 0.73828-0.30469l5.707-5.707c0.40625-0.40625 0.40625-1.0625 0-1.4688-0.19531-0.19531-0.46094-0.30859-0.73828-0.30859s-0.54297 0.11328-0.73828 0.30859l-5.7109 5.6992c-0.19531 0.19531-0.30859 0.46094-0.30859 0.73828s0.11328 0.54297 0.30859 0.73828z"/>
  <path fill="#A37B73FF" d="m83.969 50.27h-4.5625v-6.9883c0-1.7266-1.3984-3.125-3.125-3.125h-0.51172v-20.938c0-1.7266-1.3984-3.125-3.125-3.125h-4.457v-1.3945c0-1.7266-1.3984-3.125-3.125-3.125h-41.438c-1.7266 0-3.125 1.3984-3.125 3.125v1.3945h-4.4688c-1.7266 0-3.125 1.3984-3.125 3.125v40.531c0 1.7266 1.3984 3.125 3.125 3.125h19.855l-1.5117 5.7695h-5.3867c-1.7227 0-3.125 1.4023-3.125 3.125v4.2734c0 1.7227 1.4023 3.125 3.125 3.125h16.023c0.20312 1.5625 1.543 2.7305 3.125 2.7188h13.02v3.3945c0 1.7266 1.3984 3.125 3.125 3.125h19.688c1.7266 0 3.125-1.3984 3.125-3.125v-31.887c0-1.7227-1.3984-3.125-3.125-3.125zm1.043 3.125v25.207l-21.812 0.003907v-25.211c0-0.57422 0.46484-1.0391 1.0391-1.0391h19.73c0.27734 0 0.54297 0.10938 0.73828 0.30469 0.19531 0.19531 0.30469 0.46094 0.30469 0.73438zm-7.6875-10.113v6.9883h-13.086c-1.7227 0-3.125 1.4023-3.125 3.125v18.75h-14.062v-28.863c0-0.57422 0.46875-1.043 1.043-1.043h28.188c0.27734 0 0.54297 0.10938 0.73828 0.30469 0.19531 0.19531 0.30469 0.46094 0.30469 0.73828zm-54.742-20.449h43.523v17.324h-18.012c-1.7266 0-3.125 1.3984-3.125 3.125v10.676h-21.344c-0.57422 0-1.043-0.46484-1.043-1.0391zm50.062-4.6562c0.27734 0 0.54297 0.10938 0.73828 0.30469 0.19531 0.19531 0.30469 0.46094 0.30469 0.73828v20.938h-5.5v-21.98zm-49.02-4.5195h41.438c0.27734 0 0.54297 0.10938 0.73828 0.30469 0.19531 0.19531 0.30469 0.46094 0.30469 0.73828v6.0508h-43.523v-6.0508c0-0.57812 0.46875-1.043 1.043-1.043zm-8.6367 46.094v-40.531c0-0.57422 0.46875-1.043 1.043-1.043h4.4688v34.742c0 1.7227 1.3984 3.125 3.125 3.125h21.344v4.75h-28.938c-0.57422 0-1.043-0.46875-1.043-1.043zm23.051 3.125h6.9258l0.003906 5.7695h-8.457zm-10.09 13.168v-4.2734c0-0.57422 0.46484-1.0391 1.0391-1.0391h15.98v6.3516h-15.98c-0.57422 0-1.0391-0.46484-1.0391-1.0391zm20.145 3.7617v-0.003907c-0.57422 0-1.043-0.46484-1.043-1.0391v-4.5117h14.062v5.5742zm35.875 6.5195h-19.73c-0.57422 0-1.0391-0.46875-1.0391-1.043v-4.5938h21.812v4.6133c0 0.27734-0.10938 0.54297-0.30469 0.73828-0.19531 0.19531-0.46094 0.30469-0.73828 0.30469z"/>
  <path fill="#A37B73FF" d="m71.312 56.781h5.582c0.57812 0 1.043-0.46484 1.043-1.043 0-0.57422-0.46484-1.0391-1.043-1.0391h-5.582c-0.57422 0-1.043 0.46484-1.043 1.0391 0 0.57812 0.46875 1.043 1.043 1.043z"/>
 </g>
</svg>