<svg xmlns="http://www.w3.org/2000/svg" xmlns:xlink="http://www.w3.org/1999/xlink" version="1.1" x="0px" y="0px" viewBox="0 0 100 125" style="enable-background:new 0 0 100 100;" xml:space="preserve"><g><path d="M90.58,46.83c0.65-1.81,0.99-3.7,0.99-5.63c0-9.14-7.44-16.58-16.58-16.58c-1.02,0-2.04,0.1-3.06,0.29   c-2.61-4.5-7.38-7.27-12.62-7.27c-5.21,0-9.94,2.72-12.56,7.17c-2.48-1.27-5.24-1.94-8.05-1.94c-9.74,0-17.66,7.92-17.66,17.66   c0,2.28,0.43,4.5,1.28,6.6c-2.67,2.74-4.13,6.32-4.13,10.16c0,8.04,6.54,14.58,14.58,14.58c3.05,0,6.04-0.97,8.51-2.74   c3.72,3.71,8.8,5.82,14.06,5.82c5.88,0,11.34-2.53,15.14-6.98c2.69,2.5,6.25,3.91,9.93,3.91c8.04,0,14.58-6.54,14.58-14.58   C95,53.35,93.4,49.57,90.58,46.83z M80.42,70.07c-3.53,0-6.93-1.48-9.34-4.07l-0.73-0.78l-0.65,0.85   c-3.46,4.5-8.69,7.07-14.35,7.07c-5.03,0-9.88-2.13-13.3-5.83l-0.58-0.62l-0.66,0.53c-2.26,1.84-5.12,2.85-8.04,2.85   C25.73,70.07,20,64.34,20,57.29c0-3.55,1.43-6.85,4.01-9.29l0.47-0.44l-0.26-0.59c-0.91-2.04-1.37-4.21-1.37-6.44   c0-8.74,7.11-15.85,15.85-15.85c2.79,0,5.54,0.74,7.95,2.14l0.83,0.48l0.43-0.85c2.19-4.32,6.56-7,11.39-7   c4.79,0,9.14,2.65,11.34,6.9l0.32,0.62l0.68-0.16c1.1-0.25,2.22-0.38,3.32-0.38c8.14,0,14.77,6.63,14.77,14.77   c0,1.91-0.36,3.77-1.08,5.54l-0.24,0.59l0.48,0.42c2.72,2.42,4.28,5.9,4.28,9.54C93.19,64.34,87.46,70.07,80.42,70.07z"/><path d="M16.39,66.29c-3.1,0-5.63,2.52-5.63,5.63s2.52,5.63,5.63,5.63s5.63-2.52,5.63-5.63S19.5,66.29,16.39,66.29z M16.39,75.73   c-2.1,0-3.82-1.71-3.82-3.82s1.71-3.82,3.82-3.82s3.82,1.71,3.82,3.82S18.5,75.73,16.39,75.73z"/><path d="M8.32,75.73C6.49,75.73,5,77.22,5,79.05s1.49,3.32,3.32,3.32s3.32-1.49,3.32-3.32S10.15,75.73,8.32,75.73z M8.32,80.56   c-0.83,0-1.51-0.68-1.51-1.51c0-0.83,0.68-1.51,1.51-1.51s1.51,0.68,1.51,1.51C9.83,79.88,9.15,80.56,8.32,80.56z"/></g><text x="0" y="115" fill="#000000" font-size="5px" font-weight="bold" font-family="'Helvetica Neue', Helvetica, Arial-Unicode, Arial, Sans-serif">Created by CC0hort</text><text x="0" y="120" fill="#000000" font-size="5px" font-weight="bold" font-family="'Helvetica Neue', Helvetica, Arial-Unicode, Arial, Sans-serif">from the Noun Project</text></svg>