<svg xmlns="http://www.w3.org/2000/svg" xmlns:xlink="http://www.w3.org/1999/xlink" version="1.1" x="0px" y="0px" viewBox="0 0 100 125" style="enable-background:new 0 0 100 100;" xml:space="preserve"><g><g><path d="M49.6,75.9c-0.4,0-0.8,0-1.1,0c-5.7-0.3-11-3.1-14.6-7.5c-1.7,0.4-3.4,0.5-5.1,0.4c-4.8-0.3-9.2-2.4-12.4-6    s-4.8-8.2-4.6-13c0.3-5.3,2.9-10.1,7.1-13.3c-0.1-1.1-0.2-2.2-0.1-3.3c0.3-4.8,2.4-9.2,6-12.4c3.6-3.2,8.2-4.8,13-4.6    c3,0.2,5.9,1.1,8.4,2.6c3.2-2.5,7.1-3.8,11.2-3.6c6.2,0.3,11.8,4.2,14.2,9.9c9.9,1.7,17.2,10.7,16.6,20.8    c-0.6,10.9-9.8,19.3-20.8,18.9C64,71.7,57.1,75.9,49.6,75.9z M34.7,66l0.4,0.5c3.2,4.3,8.1,7,13.5,7.3c7.4,0.4,14.2-3.7,17.3-10.4    l0.3-0.6l0.7,0.1c0.1,0,0.1,0,0.2,0l0.1,0c9.9,0.6,18.4-7.1,19-17c0.5-9.3-6.3-17.5-15.5-18.8L70.1,27l-0.2-0.5    c-2.1-5.3-7-8.9-12.7-9.2c-3.8-0.2-7.5,1.1-10.3,3.6l-0.6,0.5l-0.6-0.4c-2.4-1.6-5.2-2.6-8-2.7c-4.3-0.2-8.4,1.2-11.6,4.1    c-3.2,2.9-5.1,6.8-5.3,11c-0.1,1.1,0,2.3,0.2,3.5l0.1,0.6l-0.5,0.4c-4,2.8-6.5,7.3-6.7,12.2c-0.2,4.3,1.2,8.4,4.1,11.6    c2.9,3.2,6.8,5.1,11,5.3c1.7,0.1,3.4-0.1,5.1-0.5L34.7,66z"/></g><g><path d="M29.1,80.9c-2.8,0-5-2.2-5-5s2.2-5,5-5s5,2.2,5,5S31.9,80.9,29.1,80.9z M29.1,72.9c-1.7,0-3,1.3-3,3s1.3,3,3,3s3-1.3,3-3    S30.8,72.9,29.1,72.9z"/></g><g><path d="M20.1,84.8c-2.1,0-3.9-1.7-3.9-3.8s1.7-3.8,3.9-3.8s3.9,1.7,3.9,3.8S22.3,84.8,20.1,84.8z M20.1,78.8    c-1.2,0-2.1,1-2.1,2.2s1,2.2,2.1,2.2s2.1-1,2.1-2.2S21.3,78.8,20.1,78.8z"/></g></g><text x="0" y="115" fill="#000000" font-size="5px" font-weight="bold" font-family="'Helvetica Neue', Helvetica, Arial-Unicode, Arial, Sans-serif">Created by Edanur Kuntman</text><text x="0" y="120" fill="#000000" font-size="5px" font-weight="bold" font-family="'Helvetica Neue', Helvetica, Arial-Unicode, Arial, Sans-serif">from the Noun Project</text></svg>