<svg xmlns="http://www.w3.org/2000/svg" data-name="Layer 1" viewBox="0 0 32 32" x="0px" y="0px"><path fill="#A37B73FF" d="M26.981,4.277H5.019c-1.4,0-2.539,1.139-2.539,2.539V25.184c0,1.4,1.139,2.539,2.539,2.539H26.981c1.4,0,2.539-1.139,2.539-2.539V6.816c0-1.4-1.139-2.539-2.539-2.539Zm1.461,20.906c0,.806-.655,1.461-1.461,1.461H5.019c-.806,0-1.461-.655-1.461-1.461V10.546H26.981v-1.078H3.558v-2.652c0-.806,.655-1.461,1.461-1.461H26.981c.806,0,1.461,.655,1.461,1.461V25.184Z"/><circle cx="5.645" cy="7.538" r=".625"/><circle cx="7.666" cy="7.538" r=".625"/><circle cx="9.686" cy="7.538" r=".625"/><path fill="#A37B73FF" d="M20.786,14.093l.834,.8v4.343c-.456-.348-1.02-.563-1.637-.563-1.06,0-1.971,.617-2.418,1.505-1.287-.323-2.496-.164-3.142-.02-.45-.877-1.354-1.485-2.407-1.485-.617,0-1.18,.215-1.637,.563v-4.343l.834-.8-.746-.778-1.166,1.118v6.955c0,1.497,1.218,2.715,2.715,2.715s2.715-1.218,2.715-2.715c0-.064-.015-.125-.019-.188,.546-.115,1.538-.237,2.572,.017-.004,.058-.017,.112-.017,.171,0,1.497,1.218,2.715,2.715,2.715s2.715-1.218,2.715-2.715v-6.955l-1.166-1.118-.746,.778Zm-8.769,8.932c-.902,0-1.637-.734-1.637-1.637s.734-1.637,1.637-1.637,1.637,.734,1.637,1.637-.734,1.637-1.637,1.637Zm7.966,0c-.902,0-1.637-.734-1.637-1.637s.734-1.637,1.637-1.637,1.637,.734,1.637,1.637-.734,1.637-1.637,1.637Z"/><rect fill="#A37B73FF" x="23.2" y="13.165" width="3.468" height="1.078"/><rect fill="#A37B73FF" x="12.189" y="13.165" width="7.622" height="1.078"/><rect fill="#A37B73FF" x="5.332" y="13.165" width="3.468" height="1.078"/><rect fill="#A37B73FF" x="24.232" y="15.814" width="2.436" height="1.078"/><rect fill="#A37B73FF" x="11.841" y="15.814" width="8.317" height="1.078"/><rect fill="#A37B73FF" x="5.332" y="15.814" width="2.509" height="1.078"/></svg>