<svg xmlns="http://www.w3.org/2000/svg" viewBox="0 0 100 100">
  <rect width="44" height="11" x="28" y="46.8" fill="white"></rect>
  <path
    fill="#d2928e"
    d="M71.34,47.4c.09,.78,.13,1.58,.13,2.38,0,.56-.02,1.12-.06,1.67-.02,.28-.24,.49-.5,.51-.53,.24-1.11,.48-1.74,.7,.14,.43,.21,.88,.15,1.3-.07,.48-.32,.88-.7,1.15-.3,.22-.68,.32-1.15,.32-.69,0-1.55-.24-2.62-.71-.53-.24-1.03-.5-1.42-.71-.17,.43-.55,.76-1.04,.84l-.5,.08h0l-.5,.08c-.07,.01-.15,.02-.22,.02-.4,0-.78-.18-1.03-.48-.96,1.07-2.71,2.75-4.12,2.75-.16,0-.31-.02-.46-.06-.45-.14-.81-.44-1.03-.87-.15-.29-.23-.62-.26-.96-2.5,.22-4.23,.28-4.25,.28h-.04s-3.53-.12-7.82-.64c-5.8-.7-10.23-1.75-13.17-3.12-.08-.04-.14-.09-.19-.15-.12-.1-.2-.24-.21-.4-.04-.53-.06-1.06-.06-1.59,0-.8,.05-1.6,.13-2.38-13.79,2.2-22.66,6.41-22.66,10.8,0,3.14,4.61,6.28,12.65,8.61,8.37,2.43,19.5,3.77,31.35,3.77s22.99-1.34,31.35-3.77c8.04-2.34,12.65-5.47,12.65-8.61,0-4.38-8.87-8.59-22.66-10.8h0Z"
  />
  <path
    fill="#3a5751"
    d="M55.52,55.86c.08,.16,.19,.26,.36,.31,.16,.05,.82,.1,2.36-1.31,.66-.61,1.23-1.25,1.5-1.57l-.06-.4-1.81,.29s-.06,0-.09,0c-.27,0-.51-.2-.55-.47-.05-.31,.16-.59,.46-.64l1.81-.29-.06-.4c-.35-.21-1.09-.64-1.91-1.01-1.91-.85-2.51-.59-2.65-.49-.14,.1-.22,.23-.24,.41-.1,.69,.55,1.85,.98,2.43h0s.02,.03,.03,.05v.02l.03,.03v.02l.02,.03v.02s.01,.02,.02,.03v.05h.01s0,.04,0,.05h0c0,.07,0,.14-.03,.21-.23,.68-.48,2-.16,2.62h0Z"
  />
  <path
    fill="#3a5751"
    d="M68.28,50.92c.12,.17,.28,.42,.43,.71,.58-.2,1.11-.41,1.6-.63,.02-.41,.04-.81,.04-1.22,0-.35,0-.7-.03-1.05-.54,.23-1.14,.45-1.77,.65-.04,.62-.18,1.2-.27,1.54h0Z"
  />
  <path
    fill="#d2928e"
    d="M53.51,50.85c-.04-.25-.05-.49-.01-.73,.07-.48,.32-.88,.7-1.15,.75-.53,1.98-.41,3.77,.39,.66,.29,1.26,.62,1.68,.86,.2-.27,.5-.46,.85-.52l.5-.08h0l.5-.08c.35-.06,.7,.03,.97,.22,1-1.15,3.21-3.39,4.77-2.91,.45,.14,.81,.44,1.03,.87,.08,.16,.14,.33,.18,.51,.63-.22,1.22-.44,1.75-.68-.5-4.59-2.53-8.85-5.84-12.16-3.84-3.84-8.95-5.96-14.39-5.96s-10.55,2.12-14.39,5.96c-3.31,3.31-5.34,7.57-5.84,12.16,6.76,2.99,19.66,3.5,20.23,3.53,.17,0,1.54-.06,3.51-.22h0Z"
  />
  <path
    fill="#3a5751"
    d="M65.13,52l-1.81,.29,.06,.4c.35,.21,1.09,.64,1.91,1.01,1.91,.85,2.51,.59,2.65,.49,.14-.1,.22-.23,.24-.41,.11-.69-.55-1.85-.98-2.43-.01-.02-.02-.03-.03-.05v-.02l-.03-.03v-.02l-.02-.03v-.02s-.01-.02-.02-.03v-.05h-.01s0-.04,0-.05h0c0-.07,0-.14,.03-.21,.23-.68,.48-2,.16-2.61-.08-.16-.19-.26-.36-.31-.16-.05-.81-.1-2.36,1.31-.66,.61-1.23,1.25-1.5,1.57l.07,.4,1.81-.29c.31-.05,.59,.16,.64,.46,.05,.31-.16,.59-.46,.64h0Z"
  />
  <path
    fill="#3a5751"
    d="M61.7,50.65l-.5,.08h0l-.5,.08c-.12,.02-.2,.13-.18,.25l.18,1.09h0l.26,1.57c.02,.12,.13,.2,.25,.18l.5-.08h0l.5-.08c.12-.02,.2-.13,.18-.25l-.43-2.66c-.02-.12-.13-.2-.25-.18h0Z"
  />
  <path
    fill="#3a5751"
    d="M50,54.56c.19,0,1.9-.07,4.3-.28,.06-.45,.16-.86,.23-1.11-.18-.26-.45-.7-.68-1.21-2.27,.19-3.82,.24-3.83,.24h-.04s-3.53-.12-7.82-.64c-5.36-.65-9.55-1.6-12.48-2.82-.02,.35-.03,.7-.03,1.05,0,.41,.01,.81,.04,1.22,6.73,3.02,19.74,3.54,20.31,3.56h0Z"
  />
</svg>
